<?xml version="1.0" encoding="UTF-8" standalone="no"?>
<!-- This is a Stata 17.0 generated SVG file (http://www.stata.com) -->

<svg version="1.1" width="6.00in" height="4.00in" viewBox="0 0 4320 2880" xmlns="http://www.w3.org/2000/svg" xmlns:xlink="http://www.w3.org/1999/xlink">
	<desc>Stata Graph - Graph</desc>
	<rect x="0" y="0" width="4320" height="2880" style="fill:#FFFFFF;stroke:none"/>
	<rect x="0.00" y="0.00" width="4320.00" height="2880.00" style="fill:#FFFFFF"/>
	<rect x="2.88" y="2.88" width="4314.24" height="2874.24" style="fill:none;stroke:#FFFFFF;stroke-width:5.76"/>
	<rect x="690.79" y="309.96" width="3528.36" height="2100.09" style="fill:#FFFFFF"/>
	<rect x="693.67" y="312.84" width="3522.60" height="2094.33" style="fill:none;stroke:#FFFFFF;stroke-width:5.76"/>
	<line x1="690.79" y1="2346.74" x2="4219.15" y2="2346.74" style="stroke:#000000;stroke-width:3.00"/>
	<line x1="690.79" y1="1898.80" x2="4219.15" y2="1898.80" style="stroke:#000000;stroke-width:3.00"/>
	<line x1="690.79" y1="1450.73" x2="4219.15" y2="1450.73" style="stroke:#000000;stroke-width:3.00"/>
	<line x1="690.79" y1="1002.80" x2="4219.15" y2="1002.80" style="stroke:#000000;stroke-width:3.00"/>
	<line x1="690.79" y1="554.86" x2="4219.15" y2="554.86" style="stroke:#000000;stroke-width:3.00"/>
	<path d=" M753.98 2346.74 L765.45 2346.74 L776.79 2346.74 L788.13 2346.74 L799.47 2346.74 L810.95 2346.74 L822.28 2346.74 L833.63 2346.74 L845.10 2346.74 L856.44 2346.74 L867.78 2346.74 L879.12 2346.74 L890.60 2346.74 L901.93 2346.74 L913.27 2346.74 L924.62 2346.74 L936.09 2346.74 L947.43 2346.74 L958.77 2346.74 L970.25 2346.74 L981.59 2346.74 L992.92 2346.74 L1004.26 2346.74 L1015.74 2346.74 L1027.08 2346.74 L1038.42 2346.74 L1049.76 2346.74 L1061.23 2346.74 L1072.58 2346.74 L1083.91 2346.74 L1095.39 2346.74 L1106.73 2346.74 L1118.07 2346.74 L1129.41 2346.74 L1140.88 2346.74 L1152.22 2346.74 L1163.57 2346.74 L1174.90 2346.74 L1186.38 2346.74 L1197.72 2346.74 L1209.06 2346.74 L1220.54 2346.74 L1231.88 2346.74 L1243.21 2346.74 L1254.56 2346.74 L1266.03 2346.74 L1277.37 2346.74 L1288.71 2346.74 L1300.05 2346.74 L1311.53 2346.74 L1322.87 2346.74 L1334.20 2346.74 L1345.68 2346.74 L1357.02 2346.74 L1368.36 2346.74 L1379.70 2346.74 L1391.17 2346.74 L1402.52 2346.74 L1413.86 2346.74 L1425.19 2346.74 L1436.67 2346.74 L1448.01 2346.74 L1459.35 2346.74 L1470.83 2346.74 L1482.16 2346.74 L1493.51 2346.74 L1504.85 2346.74 L1516.32 2346.74 L1527.66 2346.74 L1539.00 2346.74 L1550.34 2346.74 L1561.82 2346.74 L1573.15 2346.74 L1584.49 2346.74 L1595.97 2346.74 L1607.31 2346.74 L1618.65 2346.74 L1629.99 2346.74 L1641.46 2346.74 L1652.81 2346.74 L1664.14 2346.74 L1675.48 2346.74 L1686.96 2346.74 L1698.30 2346.74 L1709.64 2346.74 L1721.12 2346.74 L1732.45 2346.74 L1743.80 2346.74 L1755.13 2346.74 L1766.61 2346.74 L1777.95 2346.74 L1789.29 2346.74 L1800.63 2346.74 L1812.11 2346.74 L1823.44 2346.74 L1834.79 2346.74 L1846.26 2346.74 L1857.60 2346.74 L1868.94 2346.74 L1880.28 2346.74 L1891.76 2346.74 L1903.10 2346.74 L1914.43 2346.74 L1925.78 2346.74 L1937.25 2346.74 L1948.59 2346.74 L1959.93 2346.74 L1971.40 2346.74 L1982.74 2346.74 L1994.09 2346.74 L2005.42 2346.74 L2016.90 2346.74 L2028.24 2346.74 L2039.58 2346.74 L2050.92 2346.74 L2062.39 2346.74 L2073.74 2346.74 L2085.07 2346.74 L2096.55 2346.74 L2107.89 2346.74 L2119.23 2346.74 L2130.57 2346.74 L2142.05 2346.74 L2153.39 2346.74 L2164.72 2346.74 L2176.20 2346.74 L2187.54 2346.74 L2198.88 2346.74 L2210.22 2346.74 L2221.70 2346.74 L2233.03 2346.74 L2244.38 2346.74 L2255.72 2346.74 L2267.19 2346.74 L2278.53 2346.74 L2289.87 2346.74 L2301.34 2346.74 L2312.68 2346.74 L2324.03 2346.74 L2335.36 2346.74 L2346.84 2346.74 L2358.18 2346.74 L2369.52 2346.74 L2380.86 2346.74 L2392.34 2346.74 L2403.68 2346.74 L2415.01 2346.74 L2426.49 2346.74 L2437.83 2346.74 L2449.17 2346.74 L2460.51 2346.74 L2471.99 2346.74 L2483.32 2346.74 L2494.66 2346.74 L2506.01 2346.61 L2517.48 2346.61 L2528.82 2346.61 L2540.16 2346.61 L2551.64 2346.61 L2562.97 2346.61 L2574.32 2346.61 L2585.66 2346.61 L2597.13 2346.61 L2608.47 2346.61 L2619.81 2346.61 L2631.15 2346.61 L2642.63 2346.47 L2653.97 2346.47 L2665.30 2346.47 L2676.78 2346.47 L2688.12 2346.47 L2699.46 2346.47 L2710.80 2346.34 L2722.28 2346.34 L2733.61 2346.34 L2744.95 2346.34 L2756.30 2346.20 L2767.77 2346.20 L2779.11 2346.20 L2790.45 2346.20 L2801.93 2346.07 L2813.26 2346.07 L2824.61 2346.07 L2835.95 2345.93 L2847.42 2345.93 L2858.76 2345.80 L2870.10 2345.80 L2881.44 2345.66 L2892.91 2345.66 L2904.26 2345.53 L2915.59 2345.39 L2927.07 2345.39 L2938.41 2345.26 L2949.75 2345.12 L2961.09 2344.99 L2972.57 2344.85 L2983.91 2344.85 L2995.24 2344.58 L3006.59 2344.45 L3018.06 2344.31 L3029.40 2344.18 L3040.74 2344.04 L3052.22 2343.77 L3063.55 2343.64 L3074.89 2343.37 L3086.24 2343.10 L3097.71 2342.83 L3109.05 2342.56 L3120.39 2342.29 L3131.73 2342.02 L3143.20 2341.61 L3154.55 2341.34 L3165.89 2340.94 L3177.36 2340.53 L3188.70 2340.13 L3200.04 2339.59 L3211.38 2339.18 L3222.86 2338.64 L3234.20 2338.10 L3245.53 2337.43 L3256.88 2336.75 L3268.35 2336.08 L3279.69 2335.40 L3291.03 2334.59 L3302.51 2333.78 L3313.84 2332.84 L3325.18 2331.89 L3336.53 2330.81 L3348.00 2329.73 L3359.34 2328.52 L3370.68 2327.30 L3382.02 2325.95 L3393.49 2324.47 L3404.84 2322.98 L3416.18 2321.23 L3427.65 2319.47 L3438.99 2317.58 L3450.33 2315.56 L3461.67 2313.40 L3473.14 2311.10 L3484.49 2308.67 L3495.82 2305.97 L3507.16 2303.27 L3518.64 2300.17 L3529.98 2296.93 L3541.32 2293.55 L3552.80 2289.77 L3564.14 2285.86 L3575.47 2281.67 L3586.82 2277.22 L3598.29 2272.36 L3609.63 2267.23 L3620.97 2261.69 L3632.31 2255.75 L3643.78 2249.54 L3655.13 2242.79 L3666.47 2235.63 L3677.94 2227.94 L3689.28 2219.70 L3700.62 2210.93 L3711.96 2201.48 L3723.43 2191.49 L3734.78 2180.69 L3746.11 2169.21 L3757.45 2156.93 L3768.93 2143.83 L3780.27 2129.79 L3791.61 2114.67 L3803.09 2098.61 L3814.43 2081.46 L3825.76 2063.10 L3837.11 2043.53 L3848.58 2022.60 L3859.92 2000.06 L3871.26 1976.16 L3882.60 1950.51 L3894.07 1923.11 L3905.41 1893.81 L3916.76 1862.49 L3928.23 1828.87 L3939.57 1793.10 L3950.91 1754.76 L3962.25 1713.85 L3973.72 1670.11 L3985.07 1623.27 L3996.41 1573.18 L4007.74 1519.72 L4019.22 1462.48 L4030.56 1401.32 L4041.90 1335.85 L4053.38 1265.91 L4064.72 1191.12 L4076.05 1111.20 L4087.39 1025.75 L4098.87 934.35 L4110.21 836.61 L4121.55 732.12 L4132.89 620.47 L4144.36 500.99 L4155.70 373.28" stroke-linejoin="round" style="fill:none;stroke:#1A476F;stroke-width:23.04"/>
	<line x1="690.79" y1="2410.06" x2="690.79" y2="309.96" style="stroke:#000000;stroke-width:5.76"/>
	<line x1="690.79" y1="2346.74" x2="650.70" y2="2346.74" style="stroke:#000000;stroke-width:5.76"/>
	<text x="630.72" y="2381.79" style="font-family:'Helvetica';font-size:100.03px;fill:#000000" text-anchor="end">0</text>
	<line x1="690.79" y1="1898.80" x2="650.70" y2="1898.80" style="stroke:#000000;stroke-width:5.76"/>
	<text x="630.72" y="1933.85" style="font-family:'Helvetica';font-size:100.03px;fill:#000000" text-anchor="end">5000</text>
	<line x1="690.79" y1="1450.73" x2="650.70" y2="1450.73" style="stroke:#000000;stroke-width:5.76"/>
	<text x="630.72" y="1485.78" style="font-family:'Helvetica';font-size:100.03px;fill:#000000" text-anchor="end">10000</text>
	<line x1="690.79" y1="1002.80" x2="650.70" y2="1002.80" style="stroke:#000000;stroke-width:5.76"/>
	<text x="630.72" y="1037.84" style="font-family:'Helvetica';font-size:100.03px;fill:#000000" text-anchor="end">15000</text>
	<line x1="690.79" y1="554.86" x2="650.70" y2="554.86" style="stroke:#000000;stroke-width:5.76"/>
	<text x="630.72" y="589.91" style="font-family:'Helvetica';font-size:100.03px;fill:#000000" text-anchor="end">20000</text>
	<text x="232.34" y="1360.01" style="font-family:'Helvetica';font-size:110.03px;fill:#000000" transform="rotate(-90 232.34,1360.01)" text-anchor="middle">y</text>
	<line x1="690.79" y1="2410.06" x2="4219.15" y2="2410.06" style="stroke:#000000;stroke-width:5.76"/>
	<line x1="754.11" y1="2410.06" x2="754.11" y2="2450.02" style="stroke:#000000;stroke-width:5.76"/>
	<text x="754.11" y="2540.09" style="font-family:'Helvetica';font-size:100.03px;fill:#000000" text-anchor="middle">-10</text>
	<line x1="1604.47" y1="2410.06" x2="1604.47" y2="2450.02" style="stroke:#000000;stroke-width:5.76"/>
	<text x="1604.47" y="2540.09" style="font-family:'Helvetica';font-size:100.03px;fill:#000000" text-anchor="middle">-5</text>
	<line x1="2454.97" y1="2410.06" x2="2454.97" y2="2450.02" style="stroke:#000000;stroke-width:5.76"/>
	<text x="2454.97" y="2540.09" style="font-family:'Helvetica';font-size:100.03px;fill:#000000" text-anchor="middle">0</text>
	<line x1="3305.34" y1="2410.06" x2="3305.34" y2="2450.02" style="stroke:#000000;stroke-width:5.76"/>
	<text x="3305.34" y="2540.09" style="font-family:'Helvetica';font-size:100.03px;fill:#000000" text-anchor="middle">5</text>
	<line x1="4155.84" y1="2410.06" x2="4155.84" y2="2450.02" style="stroke:#000000;stroke-width:5.76"/>
	<text x="4155.84" y="2540.09" style="font-family:'Helvetica';font-size:100.03px;fill:#000000" text-anchor="middle">10</text>
	<text x="2454.97" y="2691.54" style="font-family:'Helvetica';font-size:110.03px;fill:#000000" text-anchor="middle">x</text>
	<text x="2454.97" y="233.34" style="font-family:'Helvetica';font-size:140.00px;fill:#000000" text-anchor="middle">Exponential Function</text>
</svg>
