<?xml version="1.0" encoding="UTF-8" standalone="no"?>
<!-- This is a Stata 17.0 generated SVG file (http://www.stata.com) -->

<svg version="1.1" width="6.000in" height="4.000in" viewBox="0 0 4320 2880" xmlns="http://www.w3.org/2000/svg" xmlns:xlink="http://www.w3.org/1999/xlink">
	<desc>Stata Graph - Graph</desc>
	<rect x="0" y="0" width="4320" height="2880" style="fill:#FFFFFF;stroke:none"/>
	<rect x="0.00" y="0.00" width="4320.00" height="2880.00" style="fill:#FFFFFF"/>
	<rect x="2.88" y="2.88" width="4314.24" height="2874.24" style="fill:none;stroke:#FFFFFF;stroke-width:5.76"/>
	<rect x="691.07" y="309.96" width="3528.09" height="2100.09" style="fill:#FFFFFF"/>
	<rect x="693.94" y="312.84" width="3522.33" height="2094.33" style="fill:none;stroke:#FFFFFF;stroke-width:5.76"/>
	<line x1="691.07" y1="2346.74" x2="4219.16" y2="2346.74" style="stroke:#000000;stroke-width:3.00"/>
	<line x1="691.07" y1="1898.80" x2="4219.16" y2="1898.80" style="stroke:#000000;stroke-width:3.00"/>
	<line x1="691.07" y1="1450.73" x2="4219.16" y2="1450.73" style="stroke:#000000;stroke-width:3.00"/>
	<line x1="691.07" y1="1002.80" x2="4219.16" y2="1002.80" style="stroke:#000000;stroke-width:3.00"/>
	<line x1="691.07" y1="554.86" x2="4219.16" y2="554.86" style="stroke:#000000;stroke-width:3.00"/>
	<path d=" M754.38 2346.74 L765.72 2346.74 L777.06 2346.74 L788.54 2346.74 L799.88 2346.74 L811.22 2346.74 L822.56 2346.74 L834.03 2346.74 L845.37 2346.74 L856.71 2346.74 L868.05 2346.74 L879.53 2346.74 L890.87 2346.74 L902.21 2346.74 L913.55 2346.74 L925.02 2346.74 L936.36 2346.74 L947.70 2346.74 L959.18 2346.74 L970.52 2346.74 L981.86 2346.74 L993.20 2346.74 L1004.67 2346.74 L1016.01 2346.74 L1027.35 2346.74 L1038.69 2346.74 L1050.17 2346.74 L1061.51 2346.74 L1072.85 2346.74 L1084.19 2346.74 L1095.66 2346.74 L1107.00 2346.74 L1118.34 2346.74 L1129.68 2346.74 L1141.16 2346.74 L1152.49 2346.74 L1163.84 2346.74 L1175.31 2346.74 L1186.65 2346.74 L1197.99 2346.74 L1209.33 2346.74 L1220.81 2346.74 L1232.15 2346.74 L1243.48 2346.74 L1254.83 2346.74 L1266.30 2346.74 L1277.64 2346.74 L1288.98 2346.74 L1300.32 2346.74 L1311.80 2346.74 L1323.14 2346.74 L1334.48 2346.74 L1345.95 2346.74 L1357.29 2346.74 L1368.63 2346.74 L1379.97 2346.74 L1391.45 2346.74 L1402.79 2346.74 L1414.13 2346.74 L1425.47 2346.74 L1436.94 2346.74 L1448.28 2346.74 L1459.62 2346.74 L1470.96 2346.74 L1482.44 2346.74 L1493.78 2346.74 L1505.12 2346.74 L1516.46 2346.74 L1527.93 2346.74 L1539.27 2346.74 L1550.61 2346.74 L1562.09 2346.74 L1573.43 2346.74 L1584.77 2346.74 L1596.11 2346.74 L1607.58 2346.74 L1618.92 2346.74 L1630.26 2346.74 L1641.60 2346.74 L1653.08 2346.74 L1664.42 2346.74 L1675.76 2346.74 L1687.10 2346.74 L1698.57 2346.74 L1709.91 2346.74 L1721.25 2346.74 L1732.73 2346.74 L1744.07 2346.74 L1755.41 2346.74 L1766.75 2346.74 L1778.22 2346.74 L1789.56 2346.74 L1800.90 2346.74 L1812.24 2346.74 L1823.72 2346.74 L1835.06 2346.74 L1846.40 2346.74 L1857.74 2346.74 L1869.21 2346.74 L1880.55 2346.74 L1891.89 2346.74 L1903.37 2346.74 L1914.71 2346.74 L1926.05 2346.74 L1937.39 2346.74 L1948.86 2346.74 L1960.20 2346.74 L1971.54 2346.74 L1982.88 2346.74 L1994.36 2346.74 L2005.70 2346.74 L2017.04 2346.74 L2028.38 2346.74 L2039.85 2346.74 L2051.19 2346.74 L2062.53 2346.74 L2073.87 2346.74 L2085.34 2346.74 L2096.69 2346.74 L2108.03 2346.74 L2119.50 2346.74 L2130.84 2346.74 L2142.18 2346.74 L2153.52 2346.74 L2165.00 2346.74 L2176.34 2346.74 L2187.68 2346.74 L2199.02 2346.74 L2210.49 2346.74 L2221.83 2346.74 L2233.17 2346.74 L2244.51 2346.74 L2255.99 2346.74 L2267.32 2346.74 L2278.67 2346.74 L2290.14 2346.74 L2301.48 2346.74 L2312.82 2346.74 L2324.16 2346.74 L2335.64 2346.74 L2346.98 2346.74 L2358.32 2346.74 L2369.66 2346.74 L2381.13 2346.74 L2392.47 2346.74 L2403.81 2346.74 L2415.15 2346.74 L2426.63 2346.74 L2437.97 2346.74 L2449.30 2346.74 L2460.78 2346.74 L2472.12 2346.74 L2483.46 2346.74 L2494.80 2346.74 L2506.28 2346.61 L2517.61 2346.61 L2528.96 2346.61 L2540.30 2346.61 L2551.77 2346.61 L2563.11 2346.61 L2574.45 2346.61 L2585.79 2346.61 L2597.27 2346.61 L2608.61 2346.61 L2619.95 2346.61 L2631.29 2346.61 L2642.76 2346.47 L2654.10 2346.47 L2665.44 2346.47 L2676.92 2346.47 L2688.26 2346.47 L2699.60 2346.47 L2710.94 2346.34 L2722.41 2346.34 L2733.75 2346.34 L2745.09 2346.34 L2756.43 2346.20 L2767.91 2346.20 L2779.25 2346.20 L2790.59 2346.20 L2801.93 2346.07 L2813.40 2346.07 L2824.74 2346.07 L2836.08 2345.93 L2847.56 2345.93 L2858.90 2345.80 L2870.24 2345.80 L2881.58 2345.66 L2893.05 2345.66 L2904.39 2345.53 L2915.73 2345.39 L2927.07 2345.39 L2938.55 2345.26 L2949.89 2345.12 L2961.23 2344.99 L2972.57 2344.85 L2984.04 2344.85 L2995.38 2344.58 L3006.72 2344.45 L3018.06 2344.31 L3029.54 2344.18 L3040.88 2344.04 L3052.22 2343.77 L3063.69 2343.64 L3075.03 2343.37 L3086.37 2343.10 L3097.71 2342.83 L3109.19 2342.56 L3120.53 2342.29 L3131.87 2342.02 L3143.21 2341.61 L3154.68 2341.34 L3166.02 2340.94 L3177.36 2340.53 L3188.70 2340.13 L3200.18 2339.59 L3211.52 2339.18 L3222.86 2338.64 L3234.33 2338.10 L3245.67 2337.43 L3257.01 2336.75 L3268.35 2336.08 L3279.83 2335.40 L3291.17 2334.59 L3302.51 2333.78 L3313.85 2332.84 L3325.32 2331.89 L3336.66 2330.81 L3348.00 2329.73 L3359.34 2328.52 L3370.82 2327.30 L3382.16 2325.95 L3393.50 2324.47 L3404.97 2322.98 L3416.31 2321.23 L3427.65 2319.47 L3438.99 2317.58 L3450.47 2315.56 L3461.81 2313.40 L3473.15 2311.10 L3484.49 2308.67 L3495.96 2305.97 L3507.30 2303.27 L3518.64 2300.17 L3529.98 2296.93 L3541.46 2293.55 L3552.80 2289.77 L3564.14 2285.86 L3575.48 2281.67 L3586.95 2277.22 L3598.29 2272.36 L3609.63 2267.23 L3621.11 2261.69 L3632.45 2255.75 L3643.79 2249.54 L3655.13 2242.79 L3666.60 2235.63 L3677.94 2227.94 L3689.28 2219.70 L3700.62 2210.93 L3712.10 2201.48 L3723.44 2191.49 L3734.78 2180.69 L3746.12 2169.21 L3757.59 2156.93 L3768.93 2143.83 L3780.27 2129.79 L3791.75 2114.67 L3803.09 2098.61 L3814.43 2081.46 L3825.77 2063.10 L3837.24 2043.53 L3848.58 2022.60 L3859.92 2000.06 L3871.26 1976.16 L3882.74 1950.51 L3894.08 1923.11 L3905.42 1893.81 L3916.76 1862.49 L3928.23 1828.87 L3939.57 1793.10 L3950.91 1754.76 L3962.39 1713.85 L3973.73 1670.11 L3985.07 1623.27 L3996.41 1573.18 L4007.88 1519.72 L4019.22 1462.48 L4030.56 1401.32 L4041.90 1335.85 L4053.38 1265.91 L4064.72 1191.12 L4076.06 1111.20 L4087.40 1025.75 L4098.87 934.35 L4110.21 836.61 L4121.55 732.12 L4132.89 620.47 L4144.37 500.99 L4155.71 373.28" stroke-linejoin="round" style="fill:none;stroke:#1A476F;stroke-width:23.04"/>
	<line x1="691.07" y1="2410.06" x2="691.07" y2="309.96" style="stroke:#000000;stroke-width:5.76"/>
	<line x1="691.07" y1="2346.74" x2="651.11" y2="2346.74" style="stroke:#000000;stroke-width:5.76"/>
	<text x="630.99" y="2381.79" style="font-family:'Helvetica';font-size:100.04px;fill:#000000" text-anchor="end">0</text>
	<line x1="691.07" y1="1898.80" x2="651.11" y2="1898.80" style="stroke:#000000;stroke-width:5.76"/>
	<text x="630.99" y="1933.85" style="font-family:'Helvetica';font-size:100.04px;fill:#000000" text-anchor="end">5000</text>
	<line x1="691.07" y1="1450.73" x2="651.11" y2="1450.73" style="stroke:#000000;stroke-width:5.76"/>
	<text x="630.99" y="1485.78" style="font-family:'Helvetica';font-size:100.04px;fill:#000000" text-anchor="end">10000</text>
	<line x1="691.07" y1="1002.80" x2="651.11" y2="1002.80" style="stroke:#000000;stroke-width:5.76"/>
	<text x="630.99" y="1037.84" style="font-family:'Helvetica';font-size:100.04px;fill:#000000" text-anchor="end">15000</text>
	<line x1="691.07" y1="554.86" x2="651.11" y2="554.86" style="stroke:#000000;stroke-width:5.76"/>
	<text x="630.99" y="589.91" style="font-family:'Helvetica';font-size:100.04px;fill:#000000" text-anchor="end">20000</text>
	<text x="232.34" y="1360.01" style="font-family:'Helvetica';font-size:110.03px;fill:#000000" transform="rotate(-90 232.34,1360.01)" text-anchor="middle">y</text>
	<line x1="691.07" y1="2410.06" x2="4219.16" y2="2410.06" style="stroke:#000000;stroke-width:5.76"/>
	<line x1="754.38" y1="2410.06" x2="754.38" y2="2450.02" style="stroke:#000000;stroke-width:5.76"/>
	<text x="754.38" y="2540.09" style="font-family:'Helvetica';font-size:100.04px;fill:#000000" text-anchor="middle">-10</text>
	<line x1="1604.75" y1="2410.06" x2="1604.75" y2="2450.02" style="stroke:#000000;stroke-width:5.76"/>
	<text x="1604.75" y="2540.09" style="font-family:'Helvetica';font-size:100.04px;fill:#000000" text-anchor="middle">-5</text>
	<line x1="2455.11" y1="2410.06" x2="2455.11" y2="2450.02" style="stroke:#000000;stroke-width:5.76"/>
	<text x="2455.11" y="2540.09" style="font-family:'Helvetica';font-size:100.04px;fill:#000000" text-anchor="middle">0</text>
	<line x1="3305.48" y1="2410.06" x2="3305.48" y2="2450.02" style="stroke:#000000;stroke-width:5.76"/>
	<text x="3305.48" y="2540.09" style="font-family:'Helvetica';font-size:100.04px;fill:#000000" text-anchor="middle">5</text>
	<line x1="4155.84" y1="2410.06" x2="4155.84" y2="2450.02" style="stroke:#000000;stroke-width:5.76"/>
	<text x="4155.84" y="2540.09" style="font-family:'Helvetica';font-size:100.04px;fill:#000000" text-anchor="middle">10</text>
	<text x="2455.11" y="2691.54" style="font-family:'Helvetica';font-size:110.03px;fill:#000000" text-anchor="middle">x</text>
	<text x="2455.11" y="233.34" style="font-family:'Helvetica';font-size:140.00px;fill:#000000" text-anchor="middle">Exponential Function</text>
</svg>
