<?xml version="1.0" encoding="UTF-8" standalone="no"?>
<!-- This is a Stata 17.0 generated SVG file (http://www.stata.com) -->

<svg version="1.1" width="6.000in" height="4.000in" viewBox="0 0 4320 2880" xmlns="http://www.w3.org/2000/svg" xmlns:xlink="http://www.w3.org/1999/xlink">
	<desc>Stata Graph - Graph</desc>
	<rect x="0" y="0" width="4320" height="2880" style="fill:#FFFFFF;stroke:none"/>
	<rect x="0.00" y="0.00" width="4320.00" height="2880.00" style="fill:#FFFFFF"/>
	<rect x="2.88" y="2.88" width="4314.24" height="2874.24" style="fill:none;stroke:#FFFFFF;stroke-width:5.76"/>
	<rect x="486.68" y="309.96" width="3732.48" height="2100.09" style="fill:#FFFFFF"/>
	<rect x="489.55" y="312.84" width="3726.72" height="2094.33" style="fill:none;stroke:#FFFFFF;stroke-width:5.76"/>
	<line x1="486.68" y1="2346.74" x2="4219.16" y2="2346.74" style="stroke:#000000;stroke-width:3.00"/>
	<line x1="486.68" y1="1952.00" x2="4219.16" y2="1952.00" style="stroke:#000000;stroke-width:3.00"/>
	<line x1="486.68" y1="1557.38" x2="4219.16" y2="1557.38" style="stroke:#000000;stroke-width:3.00"/>
	<line x1="486.68" y1="1162.64" x2="4219.16" y2="1162.64" style="stroke:#000000;stroke-width:3.00"/>
	<line x1="486.68" y1="768.03" x2="4219.16" y2="768.03" style="stroke:#000000;stroke-width:3.00"/>
	<line x1="486.68" y1="373.28" x2="4219.16" y2="373.28" style="stroke:#000000;stroke-width:3.00"/>
	<path d=" M549.99 2346.74 L562.01 2346.74 L574.02 2346.74 L586.17 2346.74 L598.18 2346.74 L610.20 2346.61 L622.35 2346.61 L634.37 2346.61 L646.38 2346.61 L658.53 2346.61 L670.55 2346.61 L682.56 2346.61 L694.71 2346.61 L706.73 2346.61 L718.74 2346.61 L730.89 2346.61 L742.91 2346.47 L754.92 2346.47 L767.07 2346.47 L779.09 2346.47 L791.10 2346.47 L803.25 2346.47 L815.27 2346.47 L827.28 2346.34 L839.43 2346.34 L851.45 2346.34 L863.46 2346.34 L875.48 2346.20 L887.63 2346.20 L899.64 2346.20 L911.66 2346.07 L923.81 2346.07 L935.82 2346.07 L947.84 2345.93 L959.99 2345.93 L972.00 2345.93 L984.02 2345.80 L996.17 2345.80 L1008.18 2345.66 L1020.20 2345.53 L1032.35 2345.53 L1044.36 2345.39 L1056.38 2345.26 L1068.53 2345.26 L1080.54 2345.12 L1092.56 2344.99 L1104.71 2344.85 L1116.72 2344.72 L1128.73 2344.58 L1140.89 2344.45 L1152.90 2344.31 L1164.92 2344.04 L1177.07 2343.91 L1189.08 2343.64 L1201.10 2343.50 L1213.24 2343.23 L1225.26 2342.96 L1237.28 2342.69 L1249.43 2342.42 L1261.44 2342.15 L1273.46 2341.88 L1285.61 2341.48 L1297.62 2341.21 L1309.64 2340.80 L1321.79 2340.40 L1333.80 2339.86 L1345.82 2339.45 L1357.97 2338.91 L1369.98 2338.37 L1382.00 2337.83 L1394.15 2337.16 L1406.16 2336.48 L1418.18 2335.81 L1430.33 2335.00 L1442.34 2334.19 L1454.36 2333.38 L1466.51 2332.43 L1478.52 2331.49 L1490.54 2330.41 L1502.69 2329.33 L1514.70 2328.11 L1526.72 2326.76 L1538.87 2325.41 L1550.88 2323.93 L1562.90 2322.44 L1575.05 2320.69 L1587.06 2318.93 L1599.08 2317.04 L1611.23 2315.02 L1623.24 2312.86 L1635.26 2310.56 L1647.41 2308.13 L1659.42 2305.57 L1671.44 2302.73 L1683.59 2299.76 L1695.60 2296.52 L1707.62 2293.15 L1719.77 2289.64 L1731.78 2285.72 L1743.80 2281.67 L1755.95 2277.35 L1767.96 2272.76 L1779.98 2267.77 L1792.13 2262.50 L1804.14 2256.97 L1816.16 2251.16 L1828.17 2244.82 L1840.32 2238.20 L1852.34 2231.04 L1864.35 2223.62 L1876.50 2215.65 L1888.52 2207.15 L1900.53 2198.24 L1912.68 2188.79 L1924.70 2178.80 L1936.71 2168.27 L1948.86 2157.06 L1960.88 2145.32 L1972.89 2132.90 L1985.04 2119.80 L1997.06 2105.90 L2009.07 2091.45 L2021.22 2076.20 L2033.24 2060.27 L2045.25 2043.39 L2057.40 2025.84 L2069.42 2007.48 L2081.43 1988.31 L2093.58 1968.20 L2105.59 1947.27 L2117.61 1925.54 L2129.76 1902.99 L2141.78 1879.63 L2153.79 1855.33 L2165.94 1830.22 L2177.96 1804.30 L2189.97 1777.57 L2202.12 1750.17 L2214.14 1721.95 L2226.15 1693.06 L2238.30 1663.50 L2250.32 1633.26 L2262.33 1602.48 L2274.48 1571.29 L2286.50 1539.56 L2298.51 1507.43 L2310.66 1475.03 L2322.68 1442.36 L2334.69 1409.56 L2346.84 1376.62 L2358.86 1343.54 L2370.87 1310.60 L2383.02 1277.79 L2395.04 1245.12 L2407.05 1212.72 L2419.20 1180.59 L2431.22 1148.87 L2443.23 1117.68 L2455.38 1086.90 L2467.40 1056.66 L2479.41 1027.10 L2491.56 998.21 L2503.57 969.99 L2515.59 942.58 L2527.74 915.85 L2539.76 889.93 L2551.77 864.82 L2563.92 840.52 L2575.94 817.17 L2587.95 794.49 L2600.10 772.75 L2612.11 751.96 L2624.13 731.85 L2636.28 712.68 L2648.30 694.32 L2660.31 676.77 L2672.46 659.89 L2684.48 643.96 L2696.49 628.70 L2708.64 614.12 L2720.66 600.35 L2732.67 587.26 L2744.82 574.84 L2756.84 563.09 L2768.85 551.89 L2780.87 541.36 L2793.02 531.37 L2805.03 521.92 L2817.05 513.01 L2829.20 504.50 L2841.21 496.54 L2853.23 489.11 L2865.38 481.96 L2877.39 475.34 L2889.41 469.00 L2901.56 463.19 L2913.57 457.52 L2925.59 452.39 L2937.74 447.40 L2949.75 442.81 L2961.77 438.49 L2973.92 434.44 L2985.93 430.52 L2997.95 426.88 L3010.10 423.50 L3022.11 420.40 L3034.13 417.43 L3046.28 414.59 L3058.29 412.03 L3070.31 409.60 L3082.46 407.30 L3094.47 405.14 L3106.49 403.12 L3118.64 401.23 L3130.65 399.34 L3142.67 397.72 L3154.82 396.23 L3166.83 394.75 L3178.85 393.40 L3191.00 392.05 L3203.01 390.83 L3215.03 389.75 L3227.18 388.67 L3239.19 387.73 L3251.21 386.78 L3263.36 385.97 L3275.37 385.16 L3287.39 384.35 L3299.54 383.68 L3311.55 383.00 L3323.57 382.33 L3335.72 381.79 L3347.73 381.25 L3359.75 380.71 L3371.90 380.30 L3383.91 379.76 L3395.93 379.36 L3408.08 378.95 L3420.09 378.68 L3432.11 378.28 L3444.26 378.01 L3456.27 377.74 L3468.29 377.33 L3480.44 377.20 L3492.45 376.93 L3504.47 376.66 L3516.62 376.39 L3528.63 376.25 L3540.65 376.12 L3552.80 375.85 L3564.81 375.71 L3576.83 375.58 L3588.98 375.44 L3600.99 375.31 L3613.01 375.17 L3625.16 375.04 L3637.17 374.90 L3649.19 374.77 L3661.34 374.77 L3673.35 374.63 L3685.37 374.50 L3697.52 374.50 L3709.53 374.36 L3721.55 374.36 L3733.56 374.23 L3745.71 374.23 L3757.73 374.23 L3769.74 374.09 L3781.89 374.09 L3793.91 373.96 L3805.92 373.96 L3818.07 373.96 L3830.09 373.96 L3842.10 373.82 L3854.25 373.82 L3866.27 373.82 L3878.28 373.82 L3890.43 373.69 L3902.45 373.69 L3914.46 373.69 L3926.61 373.69 L3938.63 373.69 L3950.64 373.69 L3962.79 373.55 L3974.81 373.55 L3986.82 373.55 L3998.97 373.55 L4010.99 373.55 L4023.00 373.55 L4035.15 373.55 L4047.17 373.55 L4059.18 373.55 L4071.33 373.55 L4083.35 373.42 L4095.36 373.42 L4107.51 373.42 L4119.52 373.42 L4131.54 373.42 L4143.69 373.42 L4155.71 373.42" stroke-linejoin="round" style="fill:none;stroke:#1A476F;stroke-width:23.04"/>
	<line x1="486.68" y1="2410.06" x2="486.68" y2="309.96" style="stroke:#000000;stroke-width:5.76"/>
	<line x1="486.68" y1="2346.74" x2="446.72" y2="2346.74" style="stroke:#000000;stroke-width:5.76"/>
	<text x="426.60" y="2381.79" style="font-family:'Helvetica';font-size:100.04px;fill:#000000" text-anchor="end">0</text>
	<line x1="486.68" y1="1952.00" x2="446.72" y2="1952.00" style="stroke:#000000;stroke-width:5.76"/>
	<text x="426.60" y="1987.04" style="font-family:'Helvetica';font-size:100.04px;fill:#000000" text-anchor="end">.2</text>
	<line x1="486.68" y1="1557.38" x2="446.72" y2="1557.38" style="stroke:#000000;stroke-width:5.76"/>
	<text x="426.60" y="1592.43" style="font-family:'Helvetica';font-size:100.04px;fill:#000000" text-anchor="end">.4</text>
	<line x1="486.68" y1="1162.64" x2="446.72" y2="1162.64" style="stroke:#000000;stroke-width:5.76"/>
	<text x="426.60" y="1197.68" style="font-family:'Helvetica';font-size:100.04px;fill:#000000" text-anchor="end">.6</text>
	<line x1="486.68" y1="768.03" x2="446.72" y2="768.03" style="stroke:#000000;stroke-width:5.76"/>
	<text x="426.60" y="803.07" style="font-family:'Helvetica';font-size:100.04px;fill:#000000" text-anchor="end">.8</text>
	<line x1="486.68" y1="373.28" x2="446.72" y2="373.28" style="stroke:#000000;stroke-width:5.76"/>
	<text x="426.60" y="408.33" style="font-family:'Helvetica';font-size:100.04px;fill:#000000" text-anchor="end">1</text>
	<text x="232.34" y="1360.01" style="font-family:'Helvetica';font-size:110.03px;fill:#000000" transform="rotate(-90 232.34,1360.01)" text-anchor="middle">y</text>
	<line x1="486.68" y1="2410.06" x2="4219.16" y2="2410.06" style="stroke:#000000;stroke-width:5.76"/>
	<line x1="549.99" y1="2410.06" x2="549.99" y2="2450.02" style="stroke:#000000;stroke-width:5.76"/>
	<text x="549.99" y="2540.09" style="font-family:'Helvetica';font-size:100.04px;fill:#000000" text-anchor="middle">-10</text>
	<line x1="1451.39" y1="2410.06" x2="1451.39" y2="2450.02" style="stroke:#000000;stroke-width:5.76"/>
	<text x="1451.39" y="2540.09" style="font-family:'Helvetica';font-size:100.04px;fill:#000000" text-anchor="middle">-5</text>
	<line x1="2352.92" y1="2410.06" x2="2352.92" y2="2450.02" style="stroke:#000000;stroke-width:5.76"/>
	<text x="2352.92" y="2540.09" style="font-family:'Helvetica';font-size:100.04px;fill:#000000" text-anchor="middle">0</text>
	<line x1="3254.31" y1="2410.06" x2="3254.31" y2="2450.02" style="stroke:#000000;stroke-width:5.76"/>
	<text x="3254.31" y="2540.09" style="font-family:'Helvetica';font-size:100.04px;fill:#000000" text-anchor="middle">5</text>
	<line x1="4155.84" y1="2410.06" x2="4155.84" y2="2450.02" style="stroke:#000000;stroke-width:5.76"/>
	<text x="4155.84" y="2540.09" style="font-family:'Helvetica';font-size:100.04px;fill:#000000" text-anchor="middle">10</text>
	<text x="2352.92" y="2691.54" style="font-family:'Helvetica';font-size:110.03px;fill:#000000" text-anchor="middle">x</text>
	<text x="2352.92" y="233.34" style="font-family:'Helvetica';font-size:140.00px;fill:#000000" text-anchor="middle">Logistic Function</text>
</svg>
